<svg t="1615783977653" class="icon" viewBox="0 0 1024 1024" version="1.1" xmlns="http://www.w3.org/2000/svg" p-id="1918" width="200" height="200"><path d="M245.8 599.7c-18.1 0-32.8 14.4-32.8 32.1 0 17.7 14.7 32.1 32.8 32.1h90.9c18.1 0 32.8-14.4 32.8-32.1 0-17.7-14.7-32.1-32.8-32.1h-90.9zM703.2 276.1c0-17.7-14.7-32.1-32.8-32.1H245.8c-18.1 0-32.8 14.4-32.8 32.1 0 17.7 14.7 32.1 32.8 32.1h424.6c18.1 0 32.8-14.4 32.8-32.1zM460.6 453.9c0-17.7-14.7-32.1-32.8-32.1h-191c-15.8 0-23.9 10.8-23.9 32.1 0 17.7 14.7 32.1 32.8 32.1h182c18.2 0.1 32.9-14.3 32.9-32.1z" fill="#363636" p-id="1919"></path><path d="M367.1 866.5H184.3c-31.7 0-57.4-25.1-57.4-56.1V216c0-30.9 25.8-56.1 57.4-56.1h547.4c31.7 0 57.4 25.1 57.4 56.1v178.7c0 17.7 14.8 32.1 32.9 32.1 18.1 0 32.8-14.4 32.8-32.1V216c0-66.3-55.2-120.3-123-120.3H184.3c-31.7 0-61.9 11.8-84.9 33.3-22.9 21.4-36.4 50.1-38 81v606.6c1.6 30.8 15.1 59.6 38 81 23 21.5 53.1 33.3 84.9 33.3h182.8c18.1 0 32.8-14.4 32.8-32.1 0-17.9-14.7-32.3-32.8-32.3z" fill="#363636" p-id="1920"></path><path d="M843.7 521.6c-46.2-45.3-107.7-70.2-173.3-70.2-65.4 0-127 24.9-173.3 70.2-46.3 45.2-71.8 105.4-71.8 169.5 0 64 25.5 124.2 71.8 169.5 46.2 45.3 107.7 70.2 173.3 70.2 65.5 0 127.1-24.9 173.3-70.2 46.3-45.2 71.8-105.4 71.8-169.5 0-64-25.5-124.2-71.8-169.5z m6.2 169.5c0 96.7-80.5 175.4-179.5 175.4s-179.5-78.7-179.5-175.4 80.5-175.4 179.5-175.4 179.5 78.7 179.5 175.4z" fill="#363636" p-id="1921"></path><path d="M670.4 777.6c-18.1 0-32.8 14.4-32.8 32.1 0 17.7 14.7 32.1 32.8 32.1s32.8-14.4 32.8-32.1c0-17.7-14.7-32.1-32.8-32.1zM670.4 540.4c-18.1 0-32.8 14.4-32.8 32.1v148.1c0 17.7 14.7 32.1 32.8 32.1s32.8-14.4 32.8-32.1v-148c0-17.8-14.7-32.2-32.8-32.2z" fill="#363636" p-id="1922"></path></svg>
