<svg t="1615623327965" class="icon" viewBox="0 0 1024 1024" version="1.1" xmlns="http://www.w3.org/2000/svg" p-id="1872" width="200" height="200"><path d="M516.320553 65.913723C327.473365 66.759049 174.512778 221.085162 175.350878 409.954025c0.787526 177.21493 282.974557 496.596289 315.154731 532.417865a39.737529 39.737529 0 0 0 59.440119-0.2601c31.862273-36.110576 311.202653-357.991787 310.415127-535.213942-0.838101-188.861638-155.178664-341.822225-344.040302-340.984125z m2.196402 492.860961c-76.483906 0.339575-139.009102-61.614845-139.348677-138.105976-0.339575-76.491131 61.629295-139.001877 138.105976-139.334227 76.512806-0.3468 139.023552 61.60762 139.363127 138.091526 0.339575 76.498356-61.614845 139.001877-138.120426 139.348677z" fill="aliceblue" p-id="1873"></path></svg>
